<svg width="84" height="80" viewBox="0 0 84 80" fill="none" xmlns="http://www.w3.org/2000/svg">
<g clip-path="url(#clip0_1_40)">
<path d="M40.9377 1.03128e-05H41.2472C48.7086 1.03128e-05 55.6907 2.04334 61.6712 5.60001L61.4881 5.49668C67.6077 9.05192 72.7076 14.129 76.2944 20.2367L76.3976 20.43C80.0239 26.6692 81.924 33.7639 81.9021 40.9833C81.9021 59.0033 70.3106 74.3167 54.1898 79.8433L53.9003 79.93C53.5395 80.0389 53.1583 80.0616 52.7873 79.9962C52.4162 79.9307 52.0656 79.7791 51.7637 79.5533L51.7704 79.5567C51.5522 79.3612 51.3778 79.1218 51.2585 78.8541C51.1392 78.5864 51.0777 78.2965 51.0781 78.0033V77.9567V77.96L51.1048 73.8733C51.1225 71.2556 51.1314 68.8622 51.1314 66.6933C51.2548 65.3034 51.0703 63.9033 50.5911 62.593C50.1119 61.2827 49.3498 60.0946 48.3592 59.1133C50.289 58.9278 52.201 58.5878 54.0767 58.0967L53.8237 58.1533C55.6133 57.6624 57.3324 56.9432 58.9389 56.0133L58.8357 56.07C60.4752 55.1721 61.9334 53.9762 63.1355 52.5433L63.1554 52.52C64.4259 50.8863 65.3746 49.0254 65.951 47.0367L65.9809 46.92C66.7156 44.4529 67.0845 41.8911 67.0758 39.3167L67.0725 38.8633V38.8867L67.0758 38.6467C67.0809 34.6515 65.5714 30.8033 62.8526 27.88L62.8626 27.89C63.4217 26.4233 63.7445 24.73 63.7445 22.96C63.7472 20.8698 63.288 18.8049 62.4 16.9133L62.4366 17C60.9564 16.7244 59.427 16.9361 58.0769 17.6033L58.1169 17.5867C56.365 18.2276 54.6797 19.0381 53.0849 20.0067L53.2114 19.9333L51.1846 21.2133C48.1162 20.3333 44.5919 19.8267 40.951 19.8267C37.3102 19.8267 33.7859 20.3333 30.4445 21.28L30.7141 21.2133C30.1461 20.8222 29.3907 20.3411 28.4477 19.77C27.0898 19.0007 25.6745 18.3376 24.2145 17.7867L23.9949 17.7133C22.5907 16.9813 20.9855 16.7307 19.4255 17L19.4688 16.9933C18.6006 18.8595 18.154 20.8945 18.1609 22.9533C18.1609 24.7233 18.4837 26.42 19.0761 27.9833L19.0428 27.8867C16.2687 30.872 14.7594 34.819 14.8329 38.8967V38.8833L14.8296 39.3167C14.8296 42.0133 15.2289 44.62 15.9744 47.0733L15.9245 46.8833C16.5535 49.0267 17.5086 50.89 18.7533 52.5267L18.7233 52.4833C19.89 53.9225 21.3214 55.1242 22.9399 56.0233L23.0131 56.06C24.4508 56.9 26.1181 57.61 27.872 58.1067L28.0251 58.1433C29.5759 58.56 31.433 58.9 33.3332 59.09L33.4863 59.1033C32.052 60.53 31.0968 62.4367 30.8772 64.5633L30.8739 64.6033C30.133 64.9587 29.3519 65.2228 28.5476 65.39L28.4777 65.4033C27.6257 65.5733 26.6506 65.67 25.6489 65.67H25.4292H25.4392C24.179 65.646 22.9553 65.2417 21.9282 64.51L21.9482 64.5233C20.7263 63.6741 19.7217 62.548 19.0162 61.2367L18.9929 61.1867C18.3525 60.0916 17.48 59.1506 16.437 58.43L16.407 58.41C15.6325 57.8303 14.7566 57.4007 13.8245 57.1433L13.7713 57.13L12.7063 56.97C12.1718 56.9305 11.6354 57.0149 11.1388 57.2167L11.1621 57.2067C10.8781 57.3667 10.7894 57.5711 10.8959 57.82C11.0257 58.1067 11.1854 58.3533 11.3784 58.57L11.3751 58.5667C11.5781 58.8067 11.8077 59.0167 12.0573 59.2L12.0673 59.2067L12.4401 59.4733C13.3819 59.9667 14.1573 60.6533 14.7464 61.4833L14.7597 61.5033C15.3953 62.2933 15.9544 63.1867 16.4037 64.1433L16.437 64.2233L16.9695 65.45C17.4187 66.79 18.2341 67.91 19.2991 68.72L19.3157 68.7333C20.3141 69.5133 21.5188 70.0733 22.8334 70.3267L22.8867 70.3333C23.9849 70.5467 25.2628 70.68 26.5674 70.7067H26.5907C26.7405 70.7133 26.9135 70.7133 27.0899 70.7133C27.9585 70.7133 28.8105 70.6433 29.6425 70.5067L29.5526 70.52L30.7773 70.3067C30.7773 71.66 30.7862 73.2356 30.804 75.0333C30.8217 76.8311 30.8306 77.8011 30.8306 77.9433V77.99C30.8306 78.6067 30.5643 79.16 30.1384 79.5434C29.8356 79.7712 29.4796 79.9236 29.1064 79.988C28.7331 80.0523 28.3499 80.0267 27.9885 79.9133L28.0051 79.9167C11.6014 74.2867 0.019968 58.9733 0.019968 40.95C0.019968 33.39 2.0567 26.3067 5.61434 20.22L5.50784 20.4133C9.0574 14.2839 14.1263 9.17584 20.2243 5.58334L20.4173 5.48001C26.541 1.86886 33.522 -0.0251476 40.6282 -0.00332302H40.9544H40.9377V1.03128e-05ZM15.5118 58.8867C15.6183 58.6378 15.4941 58.4245 15.1391 58.2467C14.7841 58.14 14.5533 58.1756 14.4468 58.3533C14.3404 58.6022 14.4646 58.8156 14.8196 58.9933C15.1391 59.2067 15.3698 59.1711 15.5118 58.8867ZM17.1658 60.7033C17.4143 60.5256 17.3788 60.2411 17.0593 59.85C16.7043 59.53 16.4203 59.4767 16.2074 59.69C15.9589 59.8678 15.9944 60.1522 16.3139 60.5433C16.6666 60.8922 16.9506 60.9445 17.1658 60.7V60.7033ZM18.7633 63.1033C19.0828 62.8545 19.0828 62.5167 18.7633 62.09C18.4793 61.6278 18.1775 61.5211 17.858 61.77C17.5386 61.9478 17.5386 62.2678 17.858 62.73C18.1775 63.1922 18.4793 63.3167 18.7633 63.1033ZM20.9997 65.3467C21.2837 65.0622 21.2127 64.7245 20.7867 64.3333C20.3607 63.9067 20.0057 63.8533 19.7217 64.1733C19.4022 64.4578 19.4732 64.7956 19.9347 65.1867C20.3607 65.6133 20.7157 65.6622 20.9997 65.3333V65.3467ZM24.0381 66.68C24.1446 66.2889 23.9139 66.0045 23.3459 65.8267C22.8134 65.6845 22.4762 65.8089 22.3342 66.2C22.1922 66.5911 22.423 66.8578 23.0264 67C23.5589 67.2156 23.8961 67.1089 24.0381 66.68ZM27.3961 66.9467C27.3961 66.4845 27.0944 66.2889 26.4909 66.36C25.9229 66.36 25.6389 66.5556 25.6389 66.9467C25.6389 67.4089 25.9406 67.6045 26.5441 67.5333C27.1121 67.5356 27.3961 67.3378 27.3961 66.9467ZM30.4878 66.4133C30.4168 66.0222 30.0973 65.8622 29.5293 65.9333C28.9614 66.04 28.7129 66.3067 28.7839 66.7333C28.8549 67.16 29.1744 67.3022 29.7423 67.16C30.3103 67.0178 30.5566 66.7689 30.4878 66.4133Z" fill="white"/>
</g>
<defs>
<clipPath id="clip0_1_40">
<rect width="83.2" height="80" fill="white"/>
</clipPath>
</defs>
</svg>
